<?xml version="1.0" encoding="UTF-8" standalone="no"?>
<!-- Created with Inkscape (http://www.inkscape.org/) -->

<svg
   xmlns:svg="http://www.w3.org/2000/svg"
   xmlns="http://www.w3.org/2000/svg"
   xmlns:xlink="http://www.w3.org/1999/xlink"
   version="1.1"
   width="100%"
   height="100%"
   viewBox="0 0 172.69124 88.715761"
   id="svg2"
   xml:space="preserve"><defs
   id="defs6"><clipPath
   id="clipPath26"><path
     d="m 451.5029,336.2221 c -0.3869,0.0783 -0.8121,0.1602 -1.2809,0.2447 -5.455,0.9836 -4.8649,1.9496 -6.8321,2.4862 -1.9675,0.5364 -2.1283,-0.4294 -4.2747,0.6438 -2.1461,1.0732 -4.602,1.3459 -6.9216,1.5023 -6.2399,0.4218 -19.6237,-1.6962 -29.8519,-6.9684 0.5502,-0.3398 1.1174,-0.6627 1.73,-0.9799 1.2033,-0.6233 2.4446,-1.1852 3.6892,-1.7195 1.91,-0.8198 3.8492,-1.58 5.7929,-2.3156 3.8866,-1.4712 8.4938,-3.841 10.8185,-7.4543 0.7279,-1.1316 1.4904,-2.9494 1.3047,-4.3429 l -0.1587,-1.1926 -1.1928,0.1565 c -2.5438,0.3339 -5.1069,0.6177 -7.6411,1.0128 -1.9834,0.3093 -3.9458,0.7033 -5.8425,1.3737 -2.1858,0.7724 -4.1289,1.8655 -6.0179,3.2009 -2.5787,1.8229 -5.0046,4.007 -7.3109,6.1594 -0.3296,0.3075 -0.7117,0.5989 -1.0698,0.8728 -0.3183,0.2434 -0.6397,0.4838 -0.9635,0.7208 -0.6859,-0.5868 -1.3311,-1.1974 -1.9275,-1.8329 1.5656,-1.8329 3.1317,-3.666 4.6902,-5.5051 3.0985,-3.6567 6.1988,-7.3389 9.1576,-11.1102 0.4382,-0.5587 0.8765,-1.1205 1.3082,-1.6877 3.7811,-0.1114 8.041,0.1627 12.7185,1.0465 0,0 0.3577,0.1786 1.1625,-0.1788 0.451,-0.2004 4.5691,1.3473 5.9023,1.4306 0.3208,0.0202 0.6474,0.1355 0.9722,0.3073 -0.7755,1.7314 -1.2412,3.634 -0.6961,5.3892 0.6145,1.9795 2.3028,3.1737 4.1439,3.9212 2.7675,1.1234 6.3065,1.4681 9.2662,1.6092 l 0.0564,0.003 0.0567,-0.003 c 0.7512,-0.0348 1.4442,-0.3067 1.9414,-0.8858 0.4465,-0.5196 0.6424,-1.1786 0.6826,-1.8805 0.205,0.3166 0.3648,0.5808 0.478,0.7503 0.1451,0.2177 0.3988,0.375 0.7038,0.4686 0.4252,5.5633 1.8105,11.4055 5.4062,14.7574 z m -17.5668,-21.3463 c 0.7534,0.2529 1.7033,0.546 2.6886,0.8303 -0.968,0.1517 -1.9372,0.3183 -2.9007,0.4255 -0.1043,0.0116 -0.3756,0.0303 -0.5227,-0.003 -0.002,-0.0374 0,-0.0825 0.004,-0.1253 l 0.7305,-1.1274 z m -43.509,8.4572 c -0.5502,-1.1364 -0.9564,-2.3326 -1.1937,-3.5889 0,0 -2.4143,0.4473 -2.9508,-0.8941 -0.5366,-1.3413 -0.9837,-2.8618 2.0568,-2.5934 0,0 0.5366,0.447 0.9836,-1.0732 0.2699,-0.9179 4.8444,-3.7579 12.6967,-5.0581 -2.8508,3.3947 -5.8091,6.7192 -8.7506,10.0241 -0.9456,1.0624 -1.8933,2.1232 -2.842,3.1836"
     id="path28" /></clipPath><linearGradient
   x1="0.23"
   y1="0"
   x2="0.76999998"
   y2="0"
   id="linearGradient32"
   gradientUnits="userSpaceOnUse"
   gradientTransform="matrix(92.48521,7.72692,-3.30852,39.60036,361.6994,301.9609)"
   spreadMethod="pad"><stop
     id="stop34"
     style="stop-color:#649b23;stop-opacity:1"
     offset="0" /><stop
     id="stop36"
     style="stop-color:#77b229;stop-opacity:1"
     offset="0.80000001" /><stop
     id="stop38"
     style="stop-color:#8dcd2f;stop-opacity:1"
     offset="1" /></linearGradient><clipPath
   id="clipPath68"><path
     d="m 456.9369,327.1663 c 1.8978,0 3.4371,-1.5392 3.4371,-3.437 0,-1.8981 -1.5393,-3.437 -3.4371,-3.437 -1.898,0 -3.437,1.5389 -3.437,3.437 0,1.8978 1.539,3.437 3.437,3.437"
     id="path70" /></clipPath><radialGradient
   cx="0"
   cy="0"
   r="0.74000001"
   fx="0"
   fy="0"
   id="radialGradient74"
   gradientUnits="userSpaceOnUse"
   gradientTransform="matrix(6.87402,0,0,6.87402,458.3115,324.6917)"
   spreadMethod="pad"><stop
     id="stop76"
     style="stop-color:#99d420;stop-opacity:1"
     offset="0" /><stop
     id="stop78"
     style="stop-color:#4fa83f;stop-opacity:1"
     offset="1" /></radialGradient><linearGradient
   x1="0.23"
   y1="0"
   x2="0.76999998"
   y2="0"
   id="linearGradient32-680"
   gradientUnits="userSpaceOnUse"
   gradientTransform="matrix(92.48521,7.72692,-3.30852,39.60036,361.6994,301.9609)"
   spreadMethod="pad"><stop
     id="stop3707"
     style="stop-color:#5a8c20;stop-opacity:1"
     offset="0" /><stop
     id="stop3709"
     style="stop-color:#6ba025;stop-opacity:1"
     offset="0.80000001" /><stop
     id="stop3711"
     style="stop-color:#7fb92a;stop-opacity:1"
     offset="1" /></linearGradient><radialGradient
   cx="0"
   cy="0"
   r="0.74000001"
   fx="0"
   fy="0"
   id="radialGradient74-668"
   gradientUnits="userSpaceOnUse"
   gradientTransform="matrix(6.87402,0,0,6.87402,458.3115,324.6917)"
   spreadMethod="pad"><stop
     id="stop3714"
     style="stop-color:#8abf1d;stop-opacity:1"
     offset="0" /><stop
     id="stop3716"
     style="stop-color:#479739;stop-opacity:1"
     offset="1" /></radialGradient><clipPath
   id="clipPath26-3"><path
     d="m 451.5029,336.2221 c -0.3869,0.0783 -0.8121,0.1602 -1.2809,0.2447 -5.455,0.9836 -4.8649,1.9496 -6.8321,2.4862 -1.9675,0.5364 -2.1283,-0.4294 -4.2747,0.6438 -2.1461,1.0732 -4.602,1.3459 -6.9216,1.5023 -6.2399,0.4218 -19.6237,-1.6962 -29.8519,-6.9684 0.5502,-0.3398 1.1174,-0.6627 1.73,-0.9799 1.2033,-0.6233 2.4446,-1.1852 3.6892,-1.7195 1.91,-0.8198 3.8492,-1.58 5.7929,-2.3156 3.8866,-1.4712 8.4938,-3.841 10.8185,-7.4543 0.7279,-1.1316 1.4904,-2.9494 1.3047,-4.3429 l -0.1587,-1.1926 -1.1928,0.1565 c -2.5438,0.3339 -5.1069,0.6177 -7.6411,1.0128 -1.9834,0.3093 -3.9458,0.7033 -5.8425,1.3737 -2.1858,0.7724 -4.1289,1.8655 -6.0179,3.2009 -2.5787,1.8229 -5.0046,4.007 -7.3109,6.1594 -0.3296,0.3075 -0.7117,0.5989 -1.0698,0.8728 -0.3183,0.2434 -0.6397,0.4838 -0.9635,0.7208 -0.6859,-0.5868 -1.3311,-1.1974 -1.9275,-1.8329 1.5656,-1.8329 3.1317,-3.666 4.6902,-5.5051 3.0985,-3.6567 6.1988,-7.3389 9.1576,-11.1102 0.4382,-0.5587 0.8765,-1.1205 1.3082,-1.6877 3.7811,-0.1114 8.041,0.1627 12.7185,1.0465 0,0 0.3577,0.1786 1.1625,-0.1788 0.451,-0.2004 4.5691,1.3473 5.9023,1.4306 0.3208,0.0202 0.6474,0.1355 0.9722,0.3073 -0.7755,1.7314 -1.2412,3.634 -0.6961,5.3892 0.6145,1.9795 2.3028,3.1737 4.1439,3.9212 2.7675,1.1234 6.3065,1.4681 9.2662,1.6092 l 0.0564,0.003 0.0567,-0.003 c 0.7512,-0.0348 1.4442,-0.3067 1.9414,-0.8858 0.4465,-0.5196 0.6424,-1.1786 0.6826,-1.8805 0.205,0.3166 0.3648,0.5808 0.478,0.7503 0.1451,0.2177 0.3988,0.375 0.7038,0.4686 0.4252,5.5633 1.8105,11.4055 5.4062,14.7574 z m -17.5668,-21.3463 c 0.7534,0.2529 1.7033,0.546 2.6886,0.8303 -0.968,0.1517 -1.9372,0.3183 -2.9007,0.4255 -0.1043,0.0116 -0.3756,0.0303 -0.5227,-0.003 -0.002,-0.0374 0,-0.0825 0.004,-0.1253 l 0.7305,-1.1274 z m -43.509,8.4572 c -0.5502,-1.1364 -0.9564,-2.3326 -1.1937,-3.5889 0,0 -2.4143,0.4473 -2.9508,-0.8941 -0.5366,-1.3413 -0.9837,-2.8618 2.0568,-2.5934 0,0 0.5366,0.447 0.9836,-1.0732 0.2699,-0.9179 4.8444,-3.7579 12.6967,-5.0581 -2.8508,3.3947 -5.8091,6.7192 -8.7506,10.0241 -0.9456,1.0624 -1.8933,2.1232 -2.842,3.1836"
     id="path28-7" /></clipPath><linearGradient
   x1="0.23"
   y1="0"
   x2="0.76999998"
   y2="0"
   id="linearGradient32-680-6"
   gradientUnits="userSpaceOnUse"
   gradientTransform="matrix(92.48521,7.72692,-3.30852,39.60036,361.6994,301.9609)"
   spreadMethod="pad"><stop
     id="stop3707-9"
     style="stop-color:#5a8c20;stop-opacity:1"
     offset="0" /><stop
     id="stop3709-0"
     style="stop-color:#6ba025;stop-opacity:1"
     offset="0.80000001" /><stop
     id="stop3711-8"
     style="stop-color:#7fb92a;stop-opacity:1"
     offset="1" /></linearGradient><clipPath
   id="clipPath68-2"><path
     d="m 456.9369,327.1663 c 1.8978,0 3.4371,-1.5392 3.4371,-3.437 0,-1.8981 -1.5393,-3.437 -3.4371,-3.437 -1.898,0 -3.437,1.5389 -3.437,3.437 0,1.8978 1.539,3.437 3.437,3.437"
     id="path70-4" /></clipPath><radialGradient
   cx="0"
   cy="0"
   r="0.74000001"
   fx="0"
   fy="0"
   id="radialGradient74-668-4"
   gradientUnits="userSpaceOnUse"
   gradientTransform="matrix(6.87402,0,0,6.87402,458.3115,324.6917)"
   spreadMethod="pad"><stop
     id="stop3714-6"
     style="stop-color:#8abf1d;stop-opacity:1"
     offset="0" /><stop
     id="stop3716-6"
     style="stop-color:#479739;stop-opacity:1"
     offset="1" /></radialGradient><linearGradient
   x1="0.23"
   y1="0"
   x2="0.76999998"
   y2="0"
   id="linearGradient2926"
   xlink:href="#linearGradient32-680-6"
   gradientUnits="userSpaceOnUse"
   gradientTransform="matrix(92.48521,7.72692,-3.30852,39.60036,361.6994,301.9609)"
   spreadMethod="pad" /><radialGradient
   cx="0"
   cy="0"
   r="0.74000001"
   fx="0"
   fy="0"
   id="radialGradient2928"
   xlink:href="#radialGradient74-668-4"
   gradientUnits="userSpaceOnUse"
   gradientTransform="matrix(6.87402,0,0,6.87402,458.3115,324.6917)"
   spreadMethod="pad" />

<linearGradient
   x1="0.23"
   y1="0"
   x2="0.76999998"
   y2="0"
   id="linearGradient2966"
   xlink:href="#linearGradient32-680-6"
   gradientUnits="userSpaceOnUse"
   gradientTransform="matrix(92.48521,7.72692,-3.30852,39.60036,361.6994,301.9609)"
   spreadMethod="pad" /><radialGradient
   cx="0"
   cy="0"
   r="0.74000001"
   fx="0"
   fy="0"
   id="radialGradient2968"
   xlink:href="#radialGradient74-668-4"
   gradientUnits="userSpaceOnUse"
   gradientTransform="matrix(6.87402,0,0,6.87402,458.3115,324.6917)"
   spreadMethod="pad" /></defs>


<a
   xlink:href="http://github.prideout.net/"
   target="_parent"
   transform="translate(-222.28533,-11.111157)"
   id="a33">

<rect
   width="523.71973"
   height="122.27886"
   rx="20.352209"
   ry="37.413818"
   x="1.3756187"
   y="8.7003489"
   id="Selector"
   style="fill:#ffd42a;fill-opacity:0;stroke:#000000;stroke-width:2.75124598;stroke-opacity:0" />

<path
   d="m 334.50257,58.070795 c 20.37688,-6.365125 34.72413,-17.147125 60.474,-16.985125 0,0 -6.16825,-0.534 -21.14713,4.160875 -14.97862,4.694875 -36.77637,14.30825 -39.459,16.320125 l -0.0822,0.05875 c 0.18775,-1.171 0.26363,-2.357 0.21438,-3.554625"
   id="path16"
   style="fill:#649b23;fill-opacity:1;fill-rule:evenodd;stroke:none" /><path
   d="m 333.2217,65.573045 c 8.32675,2.07925 8.28249,7.902 6.5385,20.112125 -0.55888,3.91225 -2.28938,7.144375 -3.46113,8.485875 -1.1715,1.34125 2.18188,1.37025 2.18188,1.37025 0,0 -3.24213,0.964125 -3.47913,-0.265375 -0.10737,-0.556625 2.38888,-5.650875 2.975,-10.99175 0.70688,-6.445625 0.557,-13.313625 -0.18387,-13.80225 -0.68388,-0.451 -3.97425,-0.01275 -7.26063,0.190625 1.10588,-1.629875 2.01825,-3.336375 2.68938,-5.0995"
   id="path18"
   style="fill:#5a8c20;fill-opacity:1;fill-rule:evenodd;stroke:none" /><path
   d="m 263.71195,43.634295 c -0.263,-0.96375 -7.67025,-21.521625 0.0896,-18.6115 1.78938,0.671 5.42413,6.1575 8.55388,8.95175 3.12987,2.794625 7.26587,8.115625 7.26587,8.115625 l -7.601,1.78825 c 0,0 -3.91262,-6.77375 -6.372,-7.78 -2.459,-1.006 1.90063,6.215375 0.89438,8.22725 -1.006,2.01225 -3.35338,2.571 -4.13575,1.90025 -0.78275,-0.67075 1.305,-2.591625 1.305,-2.591625"
   id="path20"
   style="fill:#5a8c20;fill-opacity:1;fill-rule:evenodd;stroke:none" /><g
   transform="matrix(1.25,0,0,-1.25,-249.39793,465.80342)"
   id="g22"><g
     clip-path="url(#clipPath26-3)"
     id="g24"><g
       id="g30"><path
         d="m 451.5029,336.2221 c -0.3869,0.0783 -0.8121,0.1602 -1.2809,0.2447 -5.455,0.9836 -4.8649,1.9496 -6.8321,2.4862 -1.9675,0.5364 -2.1283,-0.4294 -4.2747,0.6438 -2.1461,1.0732 -4.602,1.3459 -6.9216,1.5023 -6.2399,0.4218 -19.6237,-1.6962 -29.8519,-6.9684 0.5502,-0.3398 1.1174,-0.6627 1.73,-0.9799 1.2033,-0.6233 2.4446,-1.1852 3.6892,-1.7195 1.91,-0.8198 3.8492,-1.58 5.7929,-2.3156 3.8866,-1.4712 8.4938,-3.841 10.8185,-7.4543 0.7279,-1.1316 1.4904,-2.9494 1.3047,-4.3429 l -0.1587,-1.1926 -1.1928,0.1565 c -2.5438,0.3339 -5.1069,0.6177 -7.6411,1.0128 -1.9834,0.3093 -3.9458,0.7033 -5.8425,1.3737 -2.1858,0.7724 -4.1289,1.8655 -6.0179,3.2009 -2.5787,1.8229 -5.0046,4.007 -7.3109,6.1594 -0.3296,0.3075 -0.7117,0.5989 -1.0698,0.8728 -0.3183,0.2434 -0.6397,0.4838 -0.9635,0.7208 -0.6859,-0.5868 -1.3311,-1.1974 -1.9275,-1.8329 1.5656,-1.8329 3.1317,-3.666 4.6902,-5.5051 3.0985,-3.6567 6.1988,-7.3389 9.1576,-11.1102 0.4382,-0.5587 0.8765,-1.1205 1.3082,-1.6877 3.7811,-0.1114 8.041,0.1627 12.7185,1.0465 0,0 0.3577,0.1786 1.1625,-0.1788 0.451,-0.2004 4.5691,1.3473 5.9023,1.4306 0.3208,0.0202 0.6474,0.1355 0.9722,0.3073 -0.7755,1.7314 -1.2412,3.634 -0.6961,5.3892 0.6145,1.9795 2.3028,3.1737 4.1439,3.9212 2.7675,1.1234 6.3065,1.4681 9.2662,1.6092 l 0.0564,0.003 0.0567,-0.003 c 0.7512,-0.0348 1.4442,-0.3067 1.9414,-0.8858 0.4465,-0.5196 0.6424,-1.1786 0.6826,-1.8805 0.205,0.3166 0.3648,0.5808 0.478,0.7503 0.1451,0.2177 0.3988,0.375 0.7038,0.4686 0.4252,5.5633 1.8105,11.4055 5.4062,14.7574 z m -17.5668,-21.3463 c 0.7534,0.2529 1.7033,0.546 2.6886,0.8303 -0.968,0.1517 -1.9372,0.3183 -2.9007,0.4255 -0.1043,0.0116 -0.3756,0.0303 -0.5227,-0.003 -0.002,-0.0374 0,-0.0825 0.004,-0.1253 l 0.7305,-1.1274 z m -43.509,8.4572 c -0.5502,-1.1364 -0.9564,-2.3326 -1.1937,-3.5889 0,0 -2.4143,0.4473 -2.9508,-0.8941 -0.5366,-1.3413 -0.9837,-2.8618 2.0568,-2.5934 0,0 0.5366,0.447 0.9836,-1.0732 0.2699,-0.9179 4.8444,-3.7579 12.6967,-5.0581 -2.8508,3.3947 -5.8091,6.7192 -8.7506,10.0241 -0.9456,1.0624 -1.8933,2.1232 -2.842,3.1836"
         id="path40"
         style="fill:url(#linearGradient2966);fill-rule:evenodd;stroke:none" /></g></g></g><path
   d="m 308.9667,58.22667 c -2.9725,-0.199125 -7.83038,-3.31325 -9.44825,-4.62325 -2.3475,-1.90025 -3.01813,-11.0665 0,-11.51325 0,0 1.87649,0.75225 3.1635,0.388 1.28687,-0.36425 2.54587,0.28025 4.30824,1.373375 1.76251,1.09275 5.90313,1.68125 7.10613,1.877625 l 0.57513,0.09425 c -3.06363,3.03975 -4.786,7.57275 -5.70475,12.40325"
   id="path42"
   style="fill:#5a8c20;fill-opacity:1;fill-rule:evenodd;stroke:none" /><path
   d="m 298.24432,41.643045 c -0.22362,0.67075 -4.55075,5.857375 -3.32087,9.7695 1.23025,3.912625 3.98062,2.269125 3.98062,2.269125 0,0 -4.06912,-4.046375 -0.65975,-12.038625"
   id="path44"
   style="fill:#5a8c20;fill-opacity:1;fill-rule:evenodd;stroke:none" /><path
   d="m 292.6997,40.413045 c 0,0 -4.69488,4.9185 -3.35338,7.4895 1.3415,2.571125 2.12387,1.118 2.68262,2.3475 0.55913,1.2295 0.61513,1.621 2.06825,1.621 1.45313,0 -3.13012,-1.453375 3.8565,-10.507625 0,0 -4.08437,-1.716 -5.25399,-0.950375"
   id="path46"
   style="fill:#5a8c20;fill-opacity:1;fill-rule:evenodd;stroke:none" /><path
   d="m 285.88094,40.74867 c 0,0 -5.81174,6.975 -5.25362,19.226625 11.0445,-5.86025 4.25687,-12.56275 10.73125,-19.45025 0,0 -2.94488,-0.429375 -5.47763,0.223625 z m -6.93037,1.005875 c -0.33512,0.55925 -4.8065,2.571125 -4.02412,13.7495 0,0 3.29737,1.78825 4.35937,3.017875 1.06188,1.229875 -1.006,-11.40175 5.254,-17.438125 0,0 -2.683,-0.391125 -5.58925,0.67075 z m -7.26587,0.782375 c 0,0 -2.90625,3.801 -2.57101,9.725375 0,0 4.13613,1.676625 5.198,3.018125 0,0 -1.45312,-9.72525 4.08013,-13.693375 0,0 -3.35375,0.111625 -6.70713,0.949875 z m -1.45313,0.44725 c 0,0 -9.0545,2.123875 -12.6315,4.359625 -3.577,2.2355 6.03637,0.223625 10.84287,4.582875 0,0 -0.894,-3.912125 1.78863,-8.9425"
   id="path48"
   style="fill:#5a8c20;fill-opacity:1;fill-rule:evenodd;stroke:none" /><path
   d="m 292.81169,52.821045 c 0,0 -3.13012,5.700875 -5.03049,7.4895 -1.90026,1.788625 4.24774,-1.2295 5.70124,-5.868375 0,0 0.7505,-3.360125 -0.67075,-1.621125"
   id="path50"
   style="fill:#5a8c20;fill-opacity:1;fill-rule:evenodd;stroke:none" /><path
   d="m 298.51245,55.28042 c 0,0.446875 -1.47613,5.622625 -1.84425,6.315625 -0.27638,0.519875 1.79962,-2.370125 4.16275,-2.331125 0.788,0.01275 1.01149,2.140875 1.98524,2.44275 1.62076,0.503125 0.95001,-3.912125 2.17988,-3.912125 1.2295,0 -3.80088,-2.235875 -4.9745,-3.13025 -1.17387,-0.893875 -1.50912,0.615125 -1.50912,0.615125"
   id="path52"
   style="fill:#5a8c20;fill-opacity:1;fill-rule:evenodd;stroke:none" /><path
   d="m 281.20482,68.95617 c 0,0 0.9855,-7.392375 -14.19412,-13.138125 -15.17951,-5.745875 -15.24751,-7.24475 -19.49488,-10.03925 -2.93063,-1.928 -28.79225,-21.38325 -24.81588,-5.47725 1.00588,4.024125 40.5255,44.35575 40.35325,49.407875 -0.2735,8.0315 2.82225,-0.181875 1.78863,-2.906625 -2.8505,-7.516125 -40.86138,-48.63475 -35.9925,-45.69525 2.96225,1.788375 17.15737,11.21075 19.67237,13.55775 13.64713,12.7375 16.71238,12.19575 32.68313,14.290875"
   id="path54"
   style="fill:#5a8c20;fill-opacity:1;fill-rule:evenodd;stroke:none" /><path
   d="m 303.39594,63.54342 c -30.98799,1.476125 -7.88175,19.04075 1.34213,33.778 l -2.10263,2.5055 5.01025,-2.281125 -16.95787,-26.16875 c 0,0 -0.78275,-2.571125 2.2355,-2.235875 3.01812,0.3355 10.84288,2.123875 11.6255,0 0.78237,-2.123875 1.45313,-5.47725 -1.15288,-5.59775"
   id="path56"
   style="fill:#5a8c20;fill-opacity:1;fill-rule:evenodd;stroke:none" /><path
   d="m 333.11294,51.90517 c 13.33588,-15.777 34.45963,-29.592375 43.5355,-37.76075 9.1655,-8.249125 -1.16287,2.638 -4.73987,5.432625 -3.577,2.794625 -13.25725,11.335 -17.505,15.023625 -3.6195,3.142875 -15.35463,15.212875 -20.40663,19.95975 -0.22037,-0.88325 -0.51412,-1.769125 -0.884,-2.65525"
   id="path58"
   style="fill:#5a8c20;fill-opacity:1;fill-rule:evenodd;stroke:none" /><path
   d="m 295.58145,56.068545 c 0,0 -1.6115,2.9345 -2.58938,3.855375 -0.97838,0.920625 2.1865,-0.633125 2.9345,-3.021 0,0 0.38663,-1.7295 -0.34512,-0.834375"
   id="path60"
   style="fill:#5a8c20;fill-opacity:1;fill-rule:evenodd;stroke:none" /><path
   d="m 319.97469,47.56742 c 0,0 4.52726,-1.3975 7.88063,4.080125 4.33775,7.3055 1.446,14.813875 -4.97437,20.959 0,0 -1.45313,3.12975 -3.18588,5.198 -1.73225,2.067875 -1.90025,0.33525 -2.2355,-0.559125 -0.3355,-0.894 0.39125,-0.894 -1.67662,0.838375 -2.06788,1.732625 -2.73863,1.061875 -3.01825,-3.688625 -0.423,-7.19325 -0.38938,-22.950625 7.20999,-26.82775"
   id="path62"
   style="fill:#5a8c20;fill-opacity:1;fill-rule:evenodd;stroke:none" /><g
   transform="matrix(1.25,0,0,-1.25,-249.39793,465.80342)"
   id="g64"><g
     clip-path="url(#clipPath68-2)"
     id="g66"><g
       id="g72">



<path
   d="m 456.9369,327.1663 c 1.8978,0 3.4371,-1.5392 3.4371,-3.437 0,-1.8981 -1.5393,-3.437 -3.4371,-3.437 -1.898,0 -3.437,1.5389 -3.437,3.437 0,1.8978 1.539,3.437 3.437,3.437"
   id="path80"
   style="fill:url(#radialGradient2968);fill-rule:evenodd;stroke:none" />

</g></g></g><text
   x="20.83807"
   y="140.92255"
   id="text82"
   style="font-size:15px;line-height:125%;display:none"><tspan
     x="20.83807 38.074821 45.752071 60.188946 74.625824 87.787445 94.240196 108.25294 115.17569 123.42895 135.33018 143.00783 157.02057 171.3717 179.04895 193.48619 213.28545 233.0847 239.53706 252.69833 263.82098 272.07071 281.81546 288.26822 302.70544"
     y="140.92255"
     id="tspan84"
     style="font-size:20px;font-style:normal;font-variant:normal;font-weight:normal;font-stretch:normal;text-align:start;line-height:125%;writing-mode:lr-tb;text-anchor:start;fill:#508738;fill-opacity:1;fill-rule:nonzero;stroke:none;font-family:AvantGarde Bk BT;-inkscape-font-specification:AvantGarde Bk BT">Graphics Programming Tips</tspan></text>
<g
   transform="translate(7.1275709,11.111161)"
   id="layer2"
   style="display:inline" />

<g
   id="g76"
   style="fill-opacity:0;stroke-opacity:0">
<rect
   width="523.71973"
   height="122.27886"
   rx="20.352209"
   ry="37.413818"
   x="1.3756187"
   y="8.7003489"
   id="hoverrect" />
</g>

</a>

</svg>